<svg preserveAspectRatio="xMidYMid meet" data-bbox="39.995 10 120.005 180.006" viewBox="39.995 10 120.005 180.006" height="200" width="200" xmlns="http://www.w3.org/2000/svg" data-type="shape" role="presentation" aria-hidden="true" aria-label="">
    <g>
        <path d="M130 70c-28.052 0-30.002-22.69-30.033-28.604.021-.463.033-.928.033-1.396 0-16.569-13.431-30-30-30-16.569 0-30 13.431-30 30 0 16.569 13.431 30 30 30 27.462 0 30.107 19.776 30.13 27.215-.085.917-.13 1.846-.13 2.785 0 16.568 13.431 30 30 30 16.569 0 30-13.431 30-30 0-16.569-13.431-30-30-30z"></path>
        <path d="M81.483 132.282c15.308 6.34 22.577 23.889 16.236 39.197-6.34 15.307-23.889 22.576-39.197 16.236-15.307-6.341-22.576-23.89-16.236-39.197 6.341-15.308 23.89-22.577 39.197-16.236z"></path>
    </g>
</svg>