<svg preserveAspectRatio="xMidYMid meet" data-bbox="10 10 180 180" viewBox="10 10 180 180" height="200" width="200" xmlns="http://www.w3.org/2000/svg" data-type="shape" role="presentation" aria-hidden="true" aria-label="">
    <g>
        <path d="M130 40c0 16.569-13.431 30-30 30-16.569 0-30-13.431-30-30 0-16.569 13.431-30 30-30 16.569 0 30 13.431 30 30z"></path>
        <path d="M130 160c0 16.569-13.431 30-30 30-16.569 0-30-13.431-30-30 0-16.569 13.431-30 30-30 16.569 0 30 13.431 30 30z"></path>
        <path d="M160 70a29.883 29.883 0 0 0-20.073 7.709v-.002c-42.182 30.214-79.856 0-79.856 0A29.883 29.883 0 0 0 40 70c-16.568 0-30 13.432-30 30s13.432 30 30 30a29.873 29.873 0 0 0 19.306-7.044c41.307-26.483 80.621-.664 80.621-.664v-.001A29.883 29.883 0 0 0 160 130c16.569 0 30-13.431 30-30s-13.431-30-30-30z"></path>
    </g>
</svg>