<svg preserveAspectRatio="xMidYMid meet" data-bbox="10 9.983 180.001 180.034" viewBox="10 9.983 180.001 180.034" height="200" width="200" xmlns="http://www.w3.org/2000/svg" data-type="shape" role="presentation" aria-hidden="true" aria-label="">
    <g>
        <path d="M189.318 145.617a37.186 37.186 0 0 0-2.362-7.633 37.17 37.17 0 0 0-7.874-11.607c-24.649-24.649-6.425-46.299-1.256-51.523.425-.388.845-.786 1.256-1.198 14.558-14.558 14.558-38.162 0-52.721-14.559-14.558-38.162-14.558-52.721 0-14.558 14.559-14.558 38.162 0 52.721 24.13 24.13 9.078 43.83 2.561 50.388-.182.151-.358.313-.539.468-.24.207-.482.41-.717.624a36.2 36.2 0 0 0-1.305 1.241c-24.649 24.649-46.299 6.425-51.523 1.256a37.158 37.158 0 0 0-1.198-1.256c-14.558-14.558-38.162-14.558-52.721 0-14.558 14.558-14.558 38.162 0 52.721 14.558 14.558 38.162 14.558 52.721 0 24.13-24.13 43.83-9.078 50.388-2.561.15.181.311.356.465.535.208.241.412.484.627.721.398.438.807.87 1.229 1.293l.011.012a37.275 37.275 0 0 0 9.024 6.654 37.094 37.094 0 0 0 3.724 1.692c1.227.481 2.475.891 3.737 1.237a37.32 37.32 0 0 0 4.164.892c.191.029.381.06.572.086 1.69.234 3.393.355 5.096.357l.043.001a37.432 37.432 0 0 0 12.333-2.09 37.008 37.008 0 0 0 6.61-3.071 37.704 37.704 0 0 0 9.977-8.589 37.058 37.058 0 0 0 4.095-6.193 37.174 37.174 0 0 0 4.094-13.763 37.414 37.414 0 0 0 0-7.146 37.32 37.32 0 0 0-.511-3.548z"></path>
        <path d="M84.462 47.214c0 20.562-16.669 37.231-37.231 37.231S10 67.776 10 47.214 26.669 9.983 47.231 9.983s37.231 16.669 37.231 37.231z"></path>
    </g>
</svg>